# xmcd
#
# Track frame offsets:
#	150
#	12475
#	30435
#	43099
#	60041
#	79598
#	95986
#	111686
#	128489
#	141336
#	158185
#
# Disc length: 2273 seconds
# Revision: 0
# Processed by: cddbd v1.5.2PL0 Copyright (c) Steve Scherf et al.
# Submitted via: dBpowerAMP V12.0
#
DISCID=8e08df0b
DTITLE=Donna Ulisse - All The Way To Bethlehem 
DYEAR=2012
DGENRE=Gospel
TTITLE0=I See The Light of The World
TTITLE1=You Will Be Delivered
TTITLE2=Elisabeth
TTITLE3=He's Not Mine
TTITLE4=All The Way To Bethlehem
TTITLE5=You Cannot Stay Here
TTITLE6=Let The World Wait For A Little While
TTITLE7=He Is Here
TTITLE8=I'm Gonna Shine
TTITLE9=We've Come To Worship Him
TTITLE10=Morning In Bethlehem
EXTD=
EXTT0=
EXTT1=
EXTT2=
EXTT3=
EXTT4=
EXTT5=
EXTT6=
EXTT7=
EXTT8=
EXTT9=
EXTT10=
PLAYORDER=
